<svg xmlns="http://www.w3.org/2000/svg" width="1024" height="1024" viewBox="0 0 1024 1024" role="img" aria-labelledby="title desc" data-looper-id="lokdex:g1:009" data-looper-name="Sparkwing Sparrow" data-art-version="2"><title id="title">Sparkwing Sparrow</title><desc id="desc">High-detail scalable vector master for Sparkwing Sparrow, Firstlight LOKDEX #009.</desc><defs><linearGradient id="feather" x1="250" y1="190" x2="770" y2="830" gradientUnits="userSpaceOnUse"><stop stop-color="#ffe0a0"/><stop offset=".28" stop-color="#e3a74f"/><stop offset=".62" stop-color="#a86d34"/><stop offset="1" stop-color="#49372b"/></linearGradient><linearGradient id="spark"><stop stop-color="#fffbb2"/><stop offset=".45" stop-color="#ffd54e"/><stop offset="1" stop-color="#f28b2d"/></linearGradient><radialGradient id="aura"><stop stop-color="#fff071" stop-opacity=".38"/><stop offset="1" stop-color="#fff071" stop-opacity="0"/></radialGradient><filter id="shadow" x="-30%" y="-30%" width="170%" height="190%"><feDropShadow dx="0" dy="30" stdDeviation="23" flood-color="#322417" flood-opacity=".3"/></filter></defs><ellipse cx="512" cy="850" rx="360" ry="116" fill="url(#aura)"/><ellipse cx="512" cy="870" rx="270" ry="42" fill="#3b291b" opacity=".18"/><g id="character" filter="url(#shadow)"><g id="tail"><path d="M530 742 642 910l-101-48-46 57-30-166Z" fill="#4d3627" stroke="#3c2a20" stroke-width="23"/><path d="M552 768 607 851l-59-26" fill="#d58c3a" opacity=".65"/></g><ellipse cx="502" cy="639" rx="214" ry="203" fill="url(#feather)" stroke="#49372b" stroke-width="28"/><g id="left-wing"><path d="M356 521c-147 20-219 143-160 266 70 13 152-17 214-90 33-39 50-86 48-139Z" fill="#5d422d" stroke="#49372b" stroke-width="26"/><path d="M337 573c-55 32-94 74-114 125m141-78c-50 41-79 85-86 133m127-78c-35 37-51 73-47 107" fill="none" stroke="#c68138" stroke-width="15" stroke-linecap="round" opacity=".78"/></g><g id="right-wing"><path d="M651 512c145 21 213 147 151 268-70 11-148-22-208-96-31-40-47-86-43-139Z" fill="#57402f" stroke="#49372b" stroke-width="26"/><path d="M674 568c55 33 92 76 111 127m-139-79c49 42 77 87 83 135m-125-80c34 39 48 75 43 109" fill="none" stroke="#c37d36" stroke-width="15" stroke-linecap="round" opacity=".76"/></g><g id="head"><circle cx="498" cy="386" r="191" fill="url(#feather)" stroke="#49372b" stroke-width="29"/><path d="M356 259c67-45 150-64 234-39" fill="none" stroke="#fff0bd" stroke-width="24" stroke-linecap="round" opacity=".45"/><path d="M309 381 169 427l140 70Z" fill="url(#spark)" stroke="#4c3424" stroke-width="22" stroke-linejoin="round"/></g><g id="face"><ellipse cx="425" cy="383" rx="47" ry="56" fill="#49372b"/><ellipse cx="577" cy="383" rx="47" ry="56" fill="#49372b"/><ellipse cx="435" cy="369" rx="15" ry="20" fill="#fff"/><ellipse cx="587" cy="369" rx="15" ry="20" fill="#fff"/><ellipse cx="440" cy="380" rx="7" ry="12" fill="#1f1813"/><ellipse cx="592" cy="380" rx="7" ry="12" fill="#1f1813"/><path d="M439 489c39 20 83 20 122 0" fill="none" stroke="#4c3528" stroke-width="16" stroke-linecap="round"/></g><g id="spark-feathers"><path d="M323 596c-58 13-93 41-104 82l50 3-40 77 89-66 34 12-2-43 67-48Z" fill="url(#spark)" stroke="#6c4922" stroke-width="13" stroke-linejoin="round"/><path d="M682 586c62 15 99 45 108 86l-52 2 37 80-88-68-36 11 5-44-66-50Z" fill="url(#spark)" stroke="#6c4922" stroke-width="13" stroke-linejoin="round"/></g><g id="electric-arcs" fill="none" stroke="#ffe667" stroke-width="15" stroke-linecap="round" stroke-linejoin="round"><path d="m174 335 61-54-9 64 58-23-50 79"/><path d="m760 284 42 52-43 7 30 43-73 13"/><path d="m802 638 47-32-5 50 40 11-61 42"/></g><g id="feet" fill="none" stroke="#5c4027" stroke-width="18" stroke-linecap="round"><path d="M441 803v73m-29 0h59m91-73v73m-28 0h58"/></g><g id="glints"><path d="m260 238 13 27 29 13-29 13-13 29-13-29-29-13 29-13Z" fill="#fff6aa"/><circle cx="820" cy="470" r="16" fill="#fff3a0"/></g></g></svg>