<svg xmlns="http://www.w3.org/2000/svg" width="1024" height="1024" viewBox="0 0 1024 1024" role="img" aria-labelledby="title desc" data-looper-id="lokdex:g1:013" data-looper-name="Drift Duck" data-art-version="2"><title id="title">Drift Duck</title><desc id="desc">High-detail scalable vector master for Drift Duck, Firstlight LOKDEX #013.</desc><defs><linearGradient id="feather" x1="250" y1="180" x2="760" y2="830" gradientUnits="userSpaceOnUse"><stop stop-color="#fff7bc"/><stop offset=".3" stop-color="#efd782"/><stop offset=".62" stop-color="#c8a85d"/><stop offset="1" stop-color="#5b4c39"/></linearGradient><linearGradient id="beak"><stop stop-color="#ffc26b"/><stop offset=".55" stop-color="#e8863e"/><stop offset="1" stop-color="#9b4d25"/></linearGradient><linearGradient id="water"><stop stop-color="#d8fdff"/><stop offset=".45" stop-color="#7ddbe7"/><stop offset="1" stop-color="#347fa0"/></linearGradient><radialGradient id="aura"><stop stop-color="#ffc45f" stop-opacity=".34"/><stop offset="1" stop-color="#ffc45f" stop-opacity="0"/></radialGradient><filter id="shadow" x="-30%" y="-30%" width="170%" height="190%"><feDropShadow dx="0" dy="30" stdDeviation="24" flood-color="#332817" flood-opacity=".28"/></filter></defs><ellipse cx="512" cy="851" rx="360" ry="116" fill="url(#aura)"/><g id="water-rings" fill="none" stroke="#6fcad8" opacity=".62"><ellipse cx="513" cy="842" rx="278" ry="48" stroke-width="12"/><ellipse cx="513" cy="842" rx="362" ry="72" stroke-width="8"/></g><g id="character" filter="url(#shadow)"><g id="tail"><path d="M579 728 687 875l-116-34-49 57-18-157Z" fill="#62503a" stroke="#514839" stroke-width="22"/><path d="M596 756 646 826l-58-18" fill="#ddbd6d" opacity=".58"/></g><ellipse cx="508" cy="641" rx="218" ry="199" fill="url(#feather)" stroke="#514839" stroke-width="29"/><ellipse cx="511" cy="682" rx="123" ry="104" fill="#fff0aa" opacity=".4"/><g id="wing"><path d="M601 532c134 14 204 116 158 222-59 20-130 5-193-54-41-38-61-87-54-143Z" fill="#7e6848" stroke="#514839" stroke-width="25"/><path d="M625 574c50 25 87 57 111 98m-124-56c46 33 74 69 84 107" fill="none" stroke="#e7c976" stroke-width="14" stroke-linecap="round" opacity=".66"/></g><g id="head"><circle cx="475" cy="389" r="195" fill="url(#feather)" stroke="#514839" stroke-width="29"/><path d="M329 257c68-47 150-65 233-41" fill="none" stroke="#fffce1" stroke-width="24" stroke-linecap="round" opacity=".5"/><path d="M305 391 149 442l160 69Z" fill="url(#beak)" stroke="#6e4328" stroke-width="23" stroke-linejoin="round"/><path d="M156 442 299 440" stroke="#ffdca7" stroke-width="11" stroke-linecap="round" opacity=".55"/></g><g id="face"><ellipse cx="402" cy="386" rx="48" ry="57" fill="#514839"/><ellipse cx="555" cy="386" rx="48" ry="57" fill="#514839"/><ellipse cx="412" cy="372" rx="15" ry="20" fill="#fff"/><ellipse cx="565" cy="372" rx="15" ry="20" fill="#fff"/><ellipse cx="417" cy="383" rx="7" ry="12" fill="#27231c"/><ellipse cx="570" cy="383" rx="7" ry="12" fill="#27231c"/><path d="M421 492c38 20 81 20 119 0" fill="none" stroke="#5c4e3b" stroke-width="16" stroke-linecap="round"/></g><g id="drift-scarf"><path d="M336 552c93 49 206 52 306 8" fill="none" stroke="#df7d3e" stroke-width="35" stroke-linecap="round"/><path d="M610 564c86 16 147 53 184 111l-63 8 21 60c-65-20-116-54-151-101Z" fill="#e88a42" stroke="#6f452a" stroke-width="18" stroke-linejoin="round"/><path d="M382 547c79 25 157 26 232 3" fill="none" stroke="#ffd19c" stroke-width="10" stroke-linecap="round" opacity=".55"/></g><g id="splash"><path d="M203 646c25-48 52-74 82-78-13 41-1 75 35 103-47-4-86-12-117-25Z" fill="url(#water)" stroke="#377e9b" stroke-width="14"/><circle cx="204" cy="560" r="18" fill="#c4f8fb" stroke="#377e9b" stroke-width="8"/><circle cx="821" cy="614" r="21" fill="#bdf4f8" stroke="#377e9b" stroke-width="9"/></g><g id="feet" fill="none" stroke="#9b5c2e" stroke-width="18" stroke-linecap="round"><path d="M432 805v63m-28 0h58m88-63v63m-28 0h58"/></g></g></svg>