<svg xmlns="http://www.w3.org/2000/svg" width="1024" height="1024" viewBox="0 0 1024 1024" role="img" aria-labelledby="title desc" data-looper-id="lokdex:g1:023" data-looper-name="Moon Gecko" data-art-version="2"><title id="title">Moon Gecko</title><desc id="desc">High-detail scalable vector master for Moon Gecko, Firstlight LOKDEX #023.</desc><defs><linearGradient id="skin" x1="250" y1="170" x2="790" y2="830" gradientUnits="userSpaceOnUse"><stop stop-color="#f5fffb"/><stop offset=".26" stop-color="#d7efe4"/><stop offset=".58" stop-color="#9fc9c5"/><stop offset=".82" stop-color="#657a88"/><stop offset="1" stop-color="#303853"/></linearGradient><linearGradient id="moon"><stop stop-color="#f6ffff"/><stop offset=".5" stop-color="#b9efff"/><stop offset="1" stop-color="#6bbce2"/></linearGradient><radialGradient id="aura"><stop stop-color="#84dfff" stop-opacity=".34"/><stop offset="1" stop-color="#84dfff" stop-opacity="0"/></radialGradient><filter id="shadow" x="-30%" y="-30%" width="170%" height="190%"><feDropShadow dx="0" dy="31" stdDeviation="24" flood-color="#1b2437" flood-opacity=".3"/></filter></defs><ellipse cx="512" cy="850" rx="362" ry="116" fill="url(#aura)"/><ellipse cx="512" cy="870" rx="274" ry="43" fill="#263148" opacity=".16"/><g id="character" filter="url(#shadow)"><g id="tail"><path d="M687 690c127 22 183-69 130-145-36-53-105-57-145-15 59-13 91 45 58 85-21 25-57 30-88 19" fill="none" stroke="#303853" stroke-width="94" stroke-linecap="round"/><path d="M687 690c127 22 183-69 130-145-36-53-105-57-145-15" fill="none" stroke="#9fc9c5" stroke-width="58" stroke-linecap="round"/><path d="M749 527c34 12 59 33 72 59" fill="none" stroke="#e2f7f0" stroke-width="16" stroke-linecap="round" opacity=".68"/></g><ellipse cx="500" cy="661" rx="241" ry="176" fill="url(#skin)" stroke="#303853" stroke-width="28"/><g id="paws"><path d="M337 719c-65 2-111 33-114 78-3 40 36 68 78 54 45-14 79-54 92-99" fill="#8eb7b3" stroke="#303853" stroke-width="24"/><path d="M627 723c65 4 109 35 111 80 2 40-38 66-80 51-44-16-77-57-88-101" fill="#88afac" stroke="#303853" stroke-width="24"/></g><g id="head"><path d="M244 474c0-145 105-253 254-253 147 0 253 104 253 247 0 137-107 224-260 224-147 0-247-84-247-218Z" fill="url(#skin)" stroke="#303853" stroke-width="29"/><path d="M294 328c55-61 127-91 216-91 79 0 146 25 201 74" fill="none" stroke="#ffffff" stroke-width="25" stroke-linecap="round" opacity=".47"/></g><g id="face"><ellipse cx="405" cy="441" rx="50" ry="59" fill="#303853"/><ellipse cx="598" cy="441" rx="50" ry="59" fill="#303853"/><ellipse cx="417" cy="427" rx="16" ry="21" fill="#fff"/><ellipse cx="610" cy="427" rx="16" ry="21" fill="#fff"/><ellipse cx="422" cy="439" rx="8" ry="13" fill="#253049"/><ellipse cx="615" cy="439" rx="8" ry="13" fill="#253049"/><path d="M466 550c31 25 68 25 99 0" fill="none" stroke="#303853" stroke-width="18" stroke-linecap="round"/></g><g id="moon-mark"><path d="M555 302c-80 18-99 121-28 163-111 2-137-129 28-163Z" fill="url(#moon)" stroke="#55718a" stroke-width="14"/><circle cx="544" cy="361" r="13" fill="#8fcce2" opacity=".68"/></g><g id="craters" fill="#647489" opacity=".38"><circle cx="337" cy="573" r="19"/><circle cx="426" cy="646" r="16"/><circle cx="604" cy="611" r="13"/><circle cx="665" cy="527" r="17"/><circle cx="519" cy="729" r="12"/></g><g id="glowing-toes" fill="url(#moon)" stroke="#55718a" stroke-width="8"><circle cx="267" cy="816" r="20"/><circle cx="300" cy="835" r="20"/><circle cx="332" cy="838" r="20"/><circle cx="690" cy="820" r="20"/><circle cx="657" cy="839" r="20"/><circle cx="625" cy="841" r="20"/></g><g id="stars" fill="#dffaff"><path d="m208 306 13 27 28 13-28 13-13 28-13-28-28-13 28-13Z"/><circle cx="789" cy="322" r="13"/><circle cx="810" cy="675" r="9"/><path d="m730 225 9 18 19 9-19 9-9 19-9-19-19-9 19-9Z"/></g><g id="lunar-ring" fill="none" stroke="#84dfff" opacity=".48"><ellipse cx="516" cy="568" rx="402" ry="107" stroke-width="11" stroke-dasharray="35 26"/></g></g></svg>