<svg xmlns="http://www.w3.org/2000/svg" width="1024" height="1024" viewBox="0 0 96 96" role="img" aria-labelledby="title desc" data-looper-id="lokdex:g1:007" data-looper-name="Charm Crow"><title id="title">Charm Crow</title><desc id="desc">Charm Crow, Firstlight LOKDEX #007. Canonical scalable vector master for Spend It All / LOK.</desc><defs><linearGradient id="body"><stop offset="0" stop-color="#68718d"/><stop offset=".46" stop-color="#2b3047"/><stop offset="1" stop-color="#10131f"/></linearGradient><radialGradient id="aura"><stop offset="0" stop-color="#7dc0ff" stop-opacity=".56"/><stop offset="1" stop-color="#7dc0ff" stop-opacity="0"/></radialGradient></defs><ellipse cx="48" cy="78" rx="38" ry="13" fill="url(#aura)"/><ellipse cx="49" cy="58" rx="24" ry="24" fill="url(#body)" stroke="#10131f" stroke-width="2.4"/><circle cx="43" cy="36" r="17" fill="url(#body)" stroke="#10131f" stroke-width="2.4"/><path d="M55 49c18 0 25 11 18 22-8-1-15-6-20-15Z" fill="#10131f"/><path d="m27 36-11 5 11 5Z" fill="#d5ad54"/><path d="M61 70 79 81 66 59" fill="#10131f"/><ellipse cx="38" cy="38" rx="5" ry="6" fill="#10131f"/><ellipse cx="58" cy="38" rx="5" ry="6" fill="#10131f"/><circle cx="36.5" cy="36" r="1.6" fill="#fff"/><circle cx="56.5" cy="36" r="1.6" fill="#fff"/><g fill="#d5ad54"><circle cx="74" cy="55" r="3"/><rect x="71" y="60" width="6" height="6" rx="1"/></g></svg>