<svg xmlns="http://www.w3.org/2000/svg" width="1024" height="1024" viewBox="0 0 1024 1024" role="img" aria-labelledby="title desc" data-looper-id="lokdex:g1:010" data-looper-name="Pixel Puffer" data-art-version="2"><title id="title">Pixel Puffer</title><desc id="desc">High-detail scalable vector master for Pixel Puffer, Firstlight LOKDEX #010.</desc><defs><linearGradient id="body" x1="260" y1="190" x2="760" y2="820" gradientUnits="userSpaceOnUse"><stop stop-color="#e7fbff"/><stop offset=".27" stop-color="#b7e8f5"/><stop offset=".58" stop-color="#69acd5"/><stop offset=".82" stop-color="#3b79aa"/><stop offset="1" stop-color="#20364d"/></linearGradient><linearGradient id="screen"><stop stop-color="#bff8ff"/><stop offset=".5" stop-color="#5bd8eb"/><stop offset="1" stop-color="#2084b8"/></linearGradient><radialGradient id="aura"><stop stop-color="#71def7" stop-opacity=".36"/><stop offset="1" stop-color="#71def7" stop-opacity="0"/></radialGradient><filter id="shadow" x="-30%" y="-30%" width="170%" height="190%"><feDropShadow dx="0" dy="31" stdDeviation="24" flood-color="#122334" flood-opacity=".3"/></filter></defs><ellipse cx="512" cy="851" rx="363" ry="116" fill="url(#aura)"/><ellipse cx="512" cy="870" rx="272" ry="44" fill="#153047" opacity=".17"/><g id="character" filter="url(#shadow)"><g id="spikes" fill="#24445f" stroke="#172d42" stroke-width="15" stroke-linejoin="round"><path d="M217 364 111 301l22 117-101 30 112 51-67 94 126-19Z"/><path d="M807 361 914 301l-24 118 101 33-114 48 65 96-124-21Z"/><path d="M339 233 306 89l101 100 54-130 48 133 107-95-41 143Z"/><path d="M346 793 297 938l109-91 44 132 58-128 99 103-33-150Z"/></g><ellipse cx="512" cy="536" rx="326" ry="303" fill="url(#body)" stroke="#20364d" stroke-width="31"/><path d="M276 410c77-81 175-122 292-119" fill="none" stroke="#f3ffff" stroke-width="29" stroke-linecap="round" opacity=".48"/><path d="M309 455c55-50 120-78 197-84" fill="none" stroke="#fff" stroke-width="15" stroke-linecap="round" opacity=".7"/><g id="fins"><path d="M208 527 82 589l130 75c35-30 53-76 49-125Z" fill="#5aa4ce" stroke="#20364d" stroke-width="25"/><path d="M816 526 942 589l-130 75c-35-30-53-76-49-125Z" fill="#5aa4ce" stroke="#20364d" stroke-width="25"/></g><g id="face"><ellipse cx="414" cy="488" rx="56" ry="66" fill="#20364d"/><ellipse cx="610" cy="488" rx="56" ry="66" fill="#20364d"/><ellipse cx="427" cy="471" rx="18" ry="24" fill="#fff"/><ellipse cx="623" cy="471" rx="18" ry="24" fill="#fff"/><ellipse cx="433" cy="484" rx="9" ry="14" fill="#16354c"/><ellipse cx="629" cy="484" rx="9" ry="14" fill="#16354c"/><path d="M457 627c38 31 73 31 111 0" fill="none" stroke="#20364d" stroke-width="21" stroke-linecap="round"/></g><g id="pixel-display"><rect x="364" y="685" width="296" height="86" rx="24" fill="#1b3e59" stroke="#20364d" stroke-width="18"/><rect x="390" y="710" width="37" height="37" rx="6" fill="#83ecfa"/><rect x="441" y="710" width="37" height="37" rx="6" fill="#5bd8eb"/><rect x="492" y="710" width="37" height="37" rx="6" fill="#319fc7"/><rect x="543" y="710" width="37" height="37" rx="6" fill="#5bd8eb"/><rect x="594" y="710" width="37" height="37" rx="6" fill="#83ecfa"/></g><g id="pixels" stroke="#245978" stroke-width="9"><rect x="250" y="279" width="58" height="58" rx="8" fill="#8feafa"/><rect x="726" y="306" width="69" height="69" rx="9" fill="#69cce6"/><rect x="749" y="694" width="45" height="45" rx="8" fill="#a9f3ff"/><rect x="197" y="701" width="39" height="39" rx="7" fill="#66cbe5"/></g><g id="scan-lines" fill="none" stroke="#d8fbff" stroke-width="10" stroke-linecap="round" opacity=".45"><path d="M306 583h72m300 0h45"/><path d="M338 615h52m247 0h68"/><path d="M462 336h115"/></g><g id="bubbles"><circle cx="784" cy="220" r="25" fill="#baf8ff" stroke="#318eb3" stroke-width="9"/><circle cx="838" cy="173" r="13" fill="#d8fdff" stroke="#318eb3" stroke-width="7"/><circle cx="176" cy="243" r="17" fill="#c7faff" stroke="#318eb3" stroke-width="8"/></g></g></svg>