<svg xmlns="http://www.w3.org/2000/svg" width="1024" height="1024" viewBox="0 0 96 96" role="img" data-looper-id="lokdex:g1:010" data-looper-name="Pixel Puffer"><title>Pixel Puffer</title><defs><linearGradient id="body"><stop offset="0" stop-color="#c7ecf7"/><stop offset=".46" stop-color="#6da8d6"/><stop offset="1" stop-color="#20364d"/></linearGradient></defs><path d="M22 54 12 46l12-2-3-11 10 5 4-12 9 9 8-10 5 12 12-5-2 12 13 2-10 8 10 8-13 2 2 12-12-5-6 11-8-10-10 9-3-12-12 4 4-11-12-3Z" fill="#20364d"/><ellipse cx="48" cy="55" rx="28" ry="24" fill="url(#body)" stroke="#20364d" stroke-width="2.4"/><ellipse cx="38" cy="40" rx="5" ry="6" fill="#20364d"/><ellipse cx="58" cy="40" rx="5" ry="6" fill="#20364d"/><circle cx="36.5" cy="38" r="1.6" fill="#fff"/><circle cx="56.5" cy="38" r="1.6" fill="#fff"/><g fill="#92dfff"><rect x="18" y="25" width="5" height="5"/><rect x="73" y="31" width="6" height="6"/><rect x="70" y="70" width="4" height="4"/></g></svg>